<?xml version="1.0"?>
<svg xmlns="http://www.w3.org/2000/svg" xmlns:xlink="http://www.w3.org/1999/xlink" xmlns:svgjs="http://svgjs.com/svgjs" version="1.1" width="512" height="512" x="0" y="0" viewBox="0 0 512 512" style="enable-background:new 0 0 512 512" xml:space="preserve" class=""><g><g xmlns="http://www.w3.org/2000/svg"><path d="m12.5 66h41c6.893 0 12.5-5.607 12.5-12.5v-13h42.745c4.142 0 7.5-3.358 7.5-7.5s-3.358-7.5-7.5-7.5h-42.745v-13c0-6.893-5.607-12.5-12.5-12.5h-41c-6.893 0-12.5 5.607-12.5 12.5v41c0 6.893 5.607 12.5 12.5 12.5zm2.5-51h36v36h-36z" fill="#f2f2f2" data-original="#000000" style="" class=""/><path d="m499.5 0h-41c-6.893 0-12.5 5.607-12.5 12.5v13h-157.87c-3.406-14.593-16.514-25.5-32.13-25.5s-28.724 10.907-32.13 25.5h-80.232c-4.142 0-7.5 3.358-7.5 7.5s3.358 7.5 7.5 7.5h30.598c-30.267 11.516-58.088 29.376-81.224 52.512-35.235 35.235-58.236 81.334-65.212 130.401-15.734 2.502-27.8 16.16-27.8 32.587 0 18.196 14.804 33 33 33s33-14.804 33-33c0-14.784-9.773-27.329-23.197-31.514 13.715-93.101 88.582-167.968 181.683-181.683 4.185 13.424 16.73 23.197 31.514 23.197 14.787 0 27.333-9.776 31.516-23.204 43.139 6.298 82.776 25.282 115.004 55.177 1.4 1.565 6.87 3.364 10.6-.398 2.816-3.037 2.639-7.782-.398-10.599-22.006-20.413-47.248-36.065-74.63-46.475h107.908v13c0 6.893 5.607 12.5 12.5 12.5h41c6.893 0 12.5-5.607 12.5-12.5v-41c0-6.894-5.607-12.501-12.5-12.501zm-448.5 256c0 9.925-8.075 18-18 18s-18-8.075-18-18 8.075-18 18-18 18 8.075 18 18zm205-205c-9.925 0-18-8.075-18-18s8.075-18 18-18 18 8.075 18 18-8.075 18-18 18zm241 0h-36v-36h36z" fill="#f2f2f2" data-original="#000000" style="" class=""/><path d="m484.205 223.414c-5.675-40.051-21.835-77.909-46.96-109.84-2.563-3.255-7.277-3.818-10.532-1.256-3.256 2.562-3.817 7.277-1.257 10.532 23.272 29.575 38.318 64.583 43.753 101.634-13.431 4.181-23.209 16.728-23.209 31.516 0 18.196 14.804 33 33 33s33-14.804 33-33c0-16.425-12.064-30.082-27.795-32.586zm-5.205 50.586c-9.925 0-18-8.075-18-18s8.075-18 18-18 18 8.075 18 18-8.075 18-18 18z" fill="#f2f2f2" data-original="#000000" style="" class=""/><path d="m356.972 283.445c5.034-5.491 6.023-13.591 2.46-20.157l-82.408-151.784c.951-2.489 1.477-5.186 1.477-8.005 0-12.407-10.094-22.5-22.5-22.5-12.407 0-22.5 10.093-22.5 22.5 0 2.819.526 5.515 1.476 8.004l-82.407 151.783c-3.565 6.567-2.574 14.668 2.465 20.161 5.965 6.5 17.392 20.137 26.908 38.445 1.77 2.669 5.438 5.43 10.114 3.196 3.675-1.91 5.106-6.438 3.196-10.114-10.313-19.841-22.7-34.624-29.166-41.669-.709-.773-.844-1.923-.334-2.862l79.819-147.016c.94.494 1.917.923 2.929 1.282v113.017c-16.966 3.48-29.766 18.527-29.766 36.507 0 20.549 16.717 37.266 37.266 37.266s37.266-16.717 37.266-37.266c0-17.98-12.799-33.027-29.766-36.507v-113.016c1.012-.359 1.99-.789 2.929-1.282l79.82 147.017c.51.939.376 2.089-.333 2.863-14.043 15.313-46.703 56.59-46.703 109.033v16.952h-15.362c-4.143 0-7.5 3.358-7.5 7.5s3.357 7.5 7.5 7.5h53.148c3.032 0 5.5 2.467 5.5 5.5v9c0 3.033-2.468 5.5-5.5 5.5h-162c-3.033 0-5.5-2.467-5.5-5.5v-9c0-3.033 2.467-5.5 5.5-5.5h74.191c4.142 0 7.5-3.358 7.5-7.5s-3.358-7.5-7.5-7.5h-36.37v-16.953c0-10.964-1.46-22.173-4.341-33.315-1.037-4.011-5.129-6.42-9.139-5.384-4.01 1.037-6.42 5.128-5.384 9.139 2.564 9.916 3.864 19.862 3.864 29.561v16.952h-22.821c-11.304 0-20.5 9.196-20.5 20.5v9c0 9.03 5.876 16.7 14 19.426v46.281c0 9.649 7.851 17.5 17.5 17.5h140c9.649 0 17.5-7.851 17.5-17.5v-46.282c8.124-2.726 14-10.396 14-19.426v-9c0-11.304-9.196-20.5-20.5-20.5h-22.787v-16.952c0-47.175 29.902-84.876 42.759-98.895zm-100.972-187.445c4.136 0 7.5 3.364 7.5 7.5s-3.364 7.5-7.5 7.5-7.5-3.364-7.5-7.5 3.364-7.5 7.5-7.5zm22.266 178.234c0 12.277-9.988 22.266-22.266 22.266s-22.266-9.989-22.266-22.266 9.989-22.266 22.266-22.266 22.266 9.989 22.266 22.266zm47.734 222.766h-140c-1.378 0-2.5-1.122-2.5-2.5v-13.854h61.67c4.142 0 7.5-3.358 7.5-7.5s-3.358-7.5-7.5-7.5h-61.67v-16.354h145v16.354h-20.776c-4.143 0-7.5 3.358-7.5 7.5s3.357 7.5 7.5 7.5h20.776v13.854c0 1.378-1.121 2.5-2.5 2.5z" fill="#f2f2f2" data-original="#000000" style="" class=""/></g></g></svg>
