<?xml version="1.0" encoding="utf-8"?>
<!-- Generator: Adobe Illustrator 24.0.1, SVG Export Plug-In . SVG Version: 6.00 Build 0)  -->
<svg version="1.1" id="Camada_1" xmlns="http://www.w3.org/2000/svg" xmlns:xlink="http://www.w3.org/1999/xlink" x="0px" y="0px"
	 viewBox="0 0 560 120" style="enable-background:new 0 0 560 120;" xml:space="preserve">
<style type="text/css">
	.st0{fill:none;stroke:#F5F5F5;stroke-width:5.6442;stroke-linecap:round;stroke-linejoin:round;stroke-miterlimit:10;}
	.st1{fill:#F5F5F5;}
	.st2{fill:none;stroke:#F5F5F5;stroke-width:5.6015;stroke-linecap:round;stroke-linejoin:round;stroke-miterlimit:10;}
</style>
<g id="T">
	<line class="st0" x1="10.9" y1="31.7" x2="50.9" y2="31.7"/>
	<line class="st0" x1="31.6" y1="89.2" x2="31.6" y2="31.7"/>
</g>
<g id="H">
	<line class="st0" x1="66.1" y1="58.9" x2="107.7" y2="58.9"/>
	<line class="st0" x1="66.1" y1="31" x2="66.1" y2="89.7"/>
	<line class="st0" x1="107.7" y1="31" x2="107.7" y2="89.7"/>
</g>
<g id="E">
	<line class="st0" x1="123" y1="88.7" x2="170" y2="88.7"/>
	<line class="st0" x1="123.1" y1="32.5" x2="170.1" y2="32.5"/>
	<line class="st0" x1="123" y1="60.6" x2="170" y2="60.6"/>
</g>
<g id="S">
	<g>
		<path class="st1" d="M205.5,66.5v8.9c0,0.7,0.2,1.4,0.7,2l8.8,11.3c0.4,0.6,1.1,0.9,1.8,0.9H242c0.8,0,1.6-0.3,2.1-0.9L259.7,72
			c3.1-3.3,3.3-8.3,0.5-11.8l-10.1-12.9c-0.7-0.8-1.7-1.3-2.8-1.3h-11.3c-1,0-1.9,0.4-2.6,1.1l-6.9,6.9c-1.2,1.2-1.2,3.2,0,4.4
			l1.2,1.2c1.3,1.3,3.4,1.3,4.7,0l4.6-4.6c1.2-1.2,2.7-1.8,4.4-1.8h0.3c1.9,0,3.6,0.9,4.7,2.4l6,8c0.6,0.8,1,1.9,1,2.9v0
			c0,0.8-0.3,1.6-0.9,2.2l-12.6,12.6c-0.6,0.6-1.5,1-2.4,1h-16.1c-0.8,0-1.6-0.4-2.1-1.1l-11.9-15.4
			C206.7,65.1,205.5,65.5,205.5,66.5z"/>
	</g>
	<g>
		<path class="st1" d="M266.5,54.6v-8.9c0-0.7-0.2-1.4-0.7-2L257,32.4c-0.4-0.6-1.1-0.9-1.8-0.9H230c-0.8,0-1.6,0.3-2.1,0.9
			l-15.6,16.6c-3.1,3.3-3.3,8.3-0.5,11.8l10.1,12.9c0.7,0.8,1.7,1.3,2.8,1.3h11.3c1,0,1.9-0.4,2.6-1.1l7.5-7.5
			c0.9-0.9,0.9-2.3,0-3.2l-2.3-2.3c-1.1-1.1-2.8-1.1-3.8,0l-5.5,5.5c-0.8,0.8-2,1.3-3.2,1.3h-1.8c-1.3,0-2.6-0.6-3.4-1.7l-6.5-8.6
			c-0.6-0.8-1-1.9-1-2.9v0c0-0.8,0.3-1.6,0.9-2.2l12.6-12.6c0.6-0.6,1.5-1,2.4-1h16.1c0.8,0,1.6,0.4,2.1,1.1l11.9,15.4
			C265.3,56,266.5,55.6,266.5,54.6z"/>
	</g>
</g>
<line id="I" class="st0" x1="286.4" y1="31.3" x2="286.4" y2="89.9"/>
<polyline id="M" class="st0" points="367.7,89.9 367.7,31.3 339.3,80.9 312.3,31.3 312.3,89.9 "/>
<path id="P" class="st0" d="M386.6,90V68.1h25.5c21.3,0,21.5-36.8-0.6-36.8h-26.2"/>
<polyline id="L" class="st0" points="478.2,88.9 444.9,88.9 444.9,31.6 "/>
<g id="E_1_">
	<line class="st2" x1="501.1" y1="88.1" x2="548.1" y2="88.1"/>
	<line class="st2" x1="501.3" y1="32.8" x2="548.2" y2="32.8"/>
	<line class="st2" x1="501.1" y1="60.5" x2="548.1" y2="60.5"/>
</g>
</svg>
