<?xml version="1.0" encoding="utf-8"?>
<!-- Generator: Adobe Illustrator 24.0.1, SVG Export Plug-In . SVG Version: 6.00 Build 0)  -->
<svg version="1.1" id="Camada_1" xmlns="http://www.w3.org/2000/svg" xmlns:xlink="http://www.w3.org/1999/xlink" x="0px" y="0px"
	 viewBox="0 0 500 120" style="enable-background:new 0 0 500 120;" xml:space="preserve">
<style type="text/css">
	.st0{fill:none;stroke:#282A36;stroke-width:3.8576;stroke-linecap:round;stroke-linejoin:round;stroke-miterlimit:10;}
	.st1{fill:none;stroke:#282A36;stroke-width:3.8284;stroke-linecap:round;stroke-linejoin:round;stroke-miterlimit:10;}
	.st2{fill:#282A36;}
	.st3{fill:none;stroke:#282A36;stroke-width:3.3201;stroke-linecap:round;stroke-linejoin:round;stroke-miterlimit:10;}
</style>
<g id="Logo">
	<g>
		<g id="T_1_">
			<line class="st0" x1="68.6" y1="14.9" x2="96" y2="14.9"/>
			<line class="st0" x1="82.7" y1="54" x2="82.7" y2="14.9"/>
		</g>
		<g id="H_1_">
			<line class="st0" x1="106.4" y1="33.4" x2="134.9" y2="33.4"/>
			<line class="st0" x1="106.4" y1="14.4" x2="106.4" y2="54.4"/>
			<line class="st0" x1="134.9" y1="14.4" x2="134.9" y2="54.4"/>
		</g>
		<g id="E_3_">
			<line class="st0" x1="145.3" y1="53.7" x2="177.5" y2="53.7"/>
			<line class="st0" x1="145.4" y1="15.4" x2="177.6" y2="15.4"/>
			<line class="st0" x1="145.3" y1="34.6" x2="177.5" y2="34.6"/>
		</g>
		<g id="E_2_">
			<line class="st1" x1="404.3" y1="53.3" x2="436.5" y2="53.3"/>
			<line class="st1" x1="404.4" y1="15.6" x2="436.6" y2="15.6"/>
			<line class="st1" x1="404.3" y1="34.5" x2="436.5" y2="34.5"/>
		</g>
		<g id="S_1_">
			<g>
				<path class="st2" d="M201.8,38.6v6.1c0,0.5,0.2,1,0.5,1.4l6,7.7c0.3,0.4,0.7,0.6,1.2,0.6h17.3c0.6,0,1.1-0.2,1.5-0.6L239,42.3
					c2.1-2.2,2.2-5.6,0.4-8l-6.9-8.8c-0.5-0.6-1.2-0.9-1.9-0.9h-7.7c-0.7,0-1.3,0.3-1.8,0.7l-4.7,4.7c-0.8,0.8-0.8,2.2,0,3l0.9,0.8
					c0.9,0.9,2.3,0.9,3.2,0l3.1-3.1c0.8-0.8,1.9-1.2,3-1.2h0.2c1.3,0,2.5,0.6,3.2,1.6l4.1,5.4c0.4,0.6,0.7,1.3,0.7,2l0,0
					c0,0.6-0.2,1.1-0.6,1.5l-8.6,8.6c-0.4,0.4-1,0.7-1.7,0.7h-11c-0.6,0-1.1-0.3-1.5-0.7l-8.1-10.5
					C202.7,37.6,201.8,37.9,201.8,38.6z"/>
			</g>
			<g>
				<path class="st2" d="M243.6,30.5v-6.1c0-0.5-0.2-1-0.5-1.4l-6-7.7c-0.3-0.4-0.7-0.6-1.2-0.6h-17.3c-0.6,0-1.1,0.2-1.5,0.6
					l-10.7,11.3c-2.1,2.2-2.2,5.6-0.4,8l6.9,8.8c0.5,0.6,1.2,0.9,1.9,0.9h7.7c0.7,0,1.3-0.3,1.8-0.7l5.1-5.1c0.6-0.6,0.6-1.6,0-2.2
					l-1.6-1.6c-0.7-0.7-1.9-0.7-2.6,0l-3.8,3.7c-0.6,0.6-1.4,0.9-2.2,0.9h-1.2c-0.9,0-1.8-0.4-2.3-1.2l-4.4-5.9
					c-0.4-0.6-0.7-1.3-0.7-2v0c0-0.6,0.2-1.1,0.6-1.5l8.6-8.6c0.4-0.4,1-0.7,1.7-0.7h11c0.6,0,1.1,0.3,1.5,0.7l8.1,10.5
					C242.8,31.4,243.6,31.2,243.6,30.5z"/>
			</g>
		</g>
		<line id="I_1_" class="st0" x1="257.2" y1="14.6" x2="257.2" y2="54.6"/>
		<polyline id="M_1_" class="st0" points="312.9,54.6 312.9,14.6 293.5,48.4 275,14.6 275,54.6 		"/>
		<path id="P_1_" class="st0" d="M325.9,54.6V39.7h17.4c14.6,0,14.7-25.1-0.4-25.1h-18"/>
		<polyline id="L_1_" class="st0" points="388.6,53.9 365.8,53.9 365.8,14.8 		"/>
	</g>
	<line class="st3" x1="12.1" y1="72.5" x2="493.1" y2="72.5"/>
	<g>
		<path class="st2" d="M84,102.3l-5.9-2.7c-0.6-0.3-0.9-0.6-0.9-1.1c0-0.3,0.1-0.6,0.3-0.8c0.2-0.2,0.4-0.4,0.7-0.5l6.9-2.8
			c0.3-0.1,0.5-0.1,0.6,0c0.2,0.1,0.3,0.2,0.4,0.4c0.1,0.2,0.1,0.4,0,0.6c-0.1,0.2-0.2,0.3-0.5,0.4l-6.4,2.6l5.5,2.5
			c0.2,0.1,0.4,0.3,0.4,0.4c0.1,0.2,0.1,0.4,0,0.6c-0.1,0.2-0.2,0.3-0.4,0.4C84.5,102.5,84.2,102.5,84,102.3z"/>
		<path class="st2" d="M90.2,102.3c-0.2,0.1-0.5,0.1-0.6,0c-0.2-0.1-0.3-0.2-0.4-0.4c-0.1-0.2-0.1-0.4,0-0.6
			c0.1-0.2,0.2-0.3,0.5-0.4l6.4-2.6l-5.4-2.5c-0.2-0.1-0.4-0.3-0.4-0.5c-0.1-0.2-0.1-0.4,0-0.6c0.1-0.2,0.2-0.3,0.4-0.4
			c0.2-0.1,0.4-0.1,0.6,0l6,2.8c0.6,0.3,0.9,0.6,0.9,1.1c0,0.3-0.1,0.6-0.3,0.8c-0.2,0.2-0.4,0.4-0.7,0.5L90.2,102.3z"/>
		<path class="st2" d="M113.4,103.4c-0.7,0-1.4-0.1-2.1-0.2c-0.7-0.2-1.3-0.4-1.9-0.8c-0.3-0.2-0.4-0.4-0.5-0.6
			c-0.1-0.2,0-0.5,0.1-0.7c0.1-0.2,0.3-0.4,0.5-0.5c0.2-0.1,0.5-0.1,0.8,0.1c0.5,0.3,1.1,0.5,1.6,0.6c0.6,0.1,1.1,0.2,1.7,0.2
			c0.8,0,1.4-0.2,1.8-0.5c0.5-0.3,0.7-0.7,0.7-1.2c0-0.4-0.1-0.7-0.4-0.9s-0.7-0.5-1.4-0.6l-1.8-0.4c-0.8-0.2-1.5-0.5-1.9-1
			c-0.5-0.5-0.7-1.2-0.7-2c0-0.8,0.2-1.5,0.6-2c0.4-0.6,1-1,1.7-1.3c0.7-0.3,1.5-0.5,2.3-0.5c0.6,0,1.2,0.1,1.9,0.2
			c0.7,0.2,1.3,0.4,1.8,0.8c0.2,0.2,0.4,0.4,0.4,0.6s0,0.5-0.1,0.7c-0.1,0.2-0.3,0.3-0.5,0.4c-0.2,0.1-0.5,0-0.8-0.2
			c-0.4-0.2-0.8-0.4-1.3-0.5c-0.5-0.1-1-0.2-1.4-0.2c-0.7,0-1.4,0.2-1.8,0.5c-0.5,0.3-0.7,0.7-0.7,1.3c0,0.4,0.1,0.8,0.4,1
			c0.2,0.2,0.6,0.4,1.1,0.5l1.8,0.4c1,0.2,1.7,0.6,2.2,1.1s0.7,1.2,0.7,1.9c0,0.8-0.2,1.5-0.7,2.1c-0.4,0.6-1,1-1.8,1.3
			C115,103.3,114.2,103.4,113.4,103.4z"/>
		<path class="st2" d="M127.8,103.4c-1,0-2-0.2-2.7-0.6c-0.8-0.4-1.4-1-1.8-1.8c-0.4-0.8-0.6-1.7-0.6-2.9c0-1.4,0.2-2.6,0.7-3.7
			c0.5-1.1,1.2-1.9,2.1-2.5c0.9-0.6,2-0.9,3.3-0.9c1.1,0,2,0.2,2.8,0.6c0.8,0.4,1.4,1,1.8,1.8c0.4,0.8,0.6,1.7,0.6,2.8
			c0,1.4-0.2,2.6-0.7,3.7c-0.5,1.1-1.2,1.9-2.1,2.5C130.2,103.1,129.1,103.4,127.8,103.4z M127.8,101.6c0.8,0,1.5-0.2,2.1-0.7
			c0.6-0.4,1-1.1,1.3-1.8c0.3-0.8,0.5-1.7,0.5-2.7c0-1.1-0.3-2-0.8-2.6c-0.5-0.6-1.3-0.8-2.2-0.8c-0.8,0-1.5,0.2-2.1,0.7
			c-0.6,0.4-1,1.1-1.3,1.8c-0.3,0.8-0.5,1.7-0.5,2.7c0,1.2,0.3,2,0.8,2.6C126.2,101.3,126.9,101.6,127.8,101.6z"/>
		<path class="st2" d="M138.9,103.3c-0.4,0-0.7-0.1-0.8-0.3c-0.2-0.2-0.2-0.5-0.2-0.9l1.6-9.9c0.1-0.7,0.5-1,1.2-1
			c0.4,0,0.6,0.1,0.8,0.3c0.2,0.2,0.2,0.5,0.2,0.9l-1.4,9.1h4.7c0.6,0,1,0.3,1,0.8c0,0.4-0.1,0.6-0.3,0.8c-0.2,0.2-0.5,0.3-0.8,0.3
			H138.9z"/>
		<path class="st2" d="M154.2,103.4c-1,0-1.9-0.2-2.6-0.6c-0.7-0.4-1.2-1-1.6-1.8s-0.4-1.8-0.2-3l0.9-5.9c0.1-0.7,0.5-1,1.2-1
			c0.4,0,0.6,0.1,0.8,0.3c0.2,0.2,0.2,0.5,0.2,0.9l-0.9,5.9c-0.2,1.1-0.1,1.9,0.3,2.5c0.4,0.6,1.1,0.9,2,0.9c0.9,0,1.6-0.2,2.2-0.7
			c0.5-0.5,0.9-1.2,1-2.3l1-6.4c0.1-0.7,0.5-1,1.2-1c0.3,0,0.6,0.1,0.8,0.3c0.2,0.2,0.2,0.5,0.2,0.9l-1,6.2
			c-0.2,1.6-0.8,2.8-1.7,3.7C157.1,103,155.8,103.4,154.2,103.4z"/>
		<path class="st2" d="M169.9,103.4c-1,0-2-0.2-2.8-0.6c-0.8-0.4-1.4-1-1.9-1.8s-0.7-1.8-0.7-3c0-1,0.1-1.9,0.4-2.7s0.7-1.6,1.2-2.2
			c0.5-0.6,1.2-1.1,2-1.5c0.8-0.4,1.7-0.5,2.7-0.5c0.6,0,1.3,0.1,1.9,0.3s1.1,0.4,1.6,0.7c0.2,0.2,0.4,0.4,0.4,0.7
			c0,0.3,0,0.5-0.2,0.7c-0.1,0.2-0.3,0.4-0.5,0.5c-0.2,0.1-0.4,0-0.7-0.1c-0.4-0.3-0.9-0.5-1.3-0.6c-0.4-0.1-0.8-0.2-1.3-0.2
			c-0.9,0-1.6,0.2-2.2,0.6s-1.1,1-1.4,1.7s-0.5,1.6-0.5,2.5c0,1.3,0.3,2.2,0.8,2.7c0.6,0.6,1.4,0.8,2.5,0.8c0.4,0,0.8-0.1,1.2-0.2
			s0.8-0.3,1.2-0.5c0.3-0.2,0.5-0.2,0.7-0.1s0.4,0.2,0.5,0.4c0.1,0.2,0.1,0.4,0.1,0.7c0,0.2-0.2,0.5-0.5,0.6c-0.5,0.3-1,0.6-1.7,0.7
			S170.4,103.4,169.9,103.4z M169.2,106.6c-0.4,0-0.8-0.1-1.2-0.2c-0.2,0-0.3-0.1-0.4-0.3c-0.1-0.1-0.1-0.3,0-0.4
			c0-0.1,0.1-0.2,0.2-0.3c0.1-0.1,0.3-0.1,0.4,0c0.3,0.1,0.6,0.1,0.9,0.1c0.6,0,1-0.2,1-0.5c0-0.2-0.2-0.4-0.6-0.4
			c-0.1,0-0.3,0-0.5,0.1c-0.2,0-0.3,0-0.4-0.1c-0.1-0.1-0.1-0.2-0.1-0.4l0.4-1.3h1.1l-0.3,1c0.1,0,0.1,0,0.2,0c0.4,0,0.8,0.1,1,0.3
			c0.2,0.2,0.4,0.5,0.4,0.8c0,0.5-0.2,0.9-0.6,1.1C170.3,106.4,169.8,106.6,169.2,106.6z"/>
		<path class="st2" d="M183.2,103.4c-1,0-2-0.2-2.7-0.6c-0.8-0.4-1.4-1-1.8-1.8c-0.4-0.8-0.6-1.7-0.6-2.9c0-1.4,0.2-2.6,0.7-3.7
			c0.5-1.1,1.2-1.9,2.1-2.5c0.9-0.6,2-0.9,3.3-0.9c1.1,0,2,0.2,2.8,0.6c0.8,0.4,1.4,1,1.8,1.8c0.4,0.8,0.6,1.7,0.6,2.8
			c0,1.4-0.2,2.6-0.7,3.7c-0.5,1.1-1.2,1.9-2.1,2.5C185.6,103.1,184.5,103.4,183.2,103.4z M183.2,101.6c0.8,0,1.5-0.2,2.1-0.7
			c0.6-0.4,1-1.1,1.3-1.8c0.3-0.8,0.5-1.7,0.5-2.7c0-1.1-0.3-2-0.8-2.6c-0.5-0.6-1.3-0.8-2.2-0.8c-0.8,0-1.5,0.2-2.1,0.7
			c-0.6,0.4-1,1.1-1.3,1.8c-0.3,0.8-0.5,1.7-0.5,2.7c0,1.2,0.3,2,0.8,2.6C181.6,101.3,182.3,101.6,183.2,101.6z M181.3,90.1
			c-0.2,0-0.3-0.1-0.4-0.2s-0.1-0.3,0-0.5c0.2-0.7,0.5-1.2,0.9-1.5c0.4-0.3,0.8-0.5,1.4-0.5c0.3,0,0.6,0.1,0.9,0.2
			c0.3,0.1,0.5,0.2,0.8,0.4s0.5,0.3,0.7,0.4c0.2,0.1,0.4,0.2,0.7,0.2c0.2,0,0.5-0.1,0.7-0.2c0.2-0.1,0.3-0.3,0.4-0.6
			c0.1-0.2,0.1-0.3,0.2-0.3s0.2-0.1,0.4-0.1c0.2,0,0.3,0.1,0.4,0.2c0.1,0.1,0.1,0.3,0,0.5c-0.2,0.7-0.5,1.1-0.9,1.5
			c-0.4,0.3-0.9,0.5-1.4,0.5c-0.3,0-0.6-0.1-0.9-0.2c-0.3-0.1-0.5-0.2-0.8-0.4c-0.2-0.1-0.5-0.3-0.7-0.4c-0.2-0.1-0.4-0.2-0.7-0.2
			c-0.2,0-0.5,0.1-0.7,0.2c-0.2,0.1-0.3,0.3-0.4,0.6c-0.1,0.2-0.1,0.3-0.2,0.3C181.6,90.1,181.5,90.2,181.3,90.1z"/>
		<path class="st2" d="M194.3,103.3c-0.8,0-1.2-0.4-1.1-1.2l1.5-9.7c0.1-0.7,0.5-1.1,1.2-1.1h5.9c0.6,0,0.9,0.2,0.9,0.7
			c0,0.3-0.1,0.6-0.3,0.8c-0.2,0.2-0.4,0.3-0.7,0.3h-5.1l-0.5,3.3h4.5c0.6,0,0.9,0.2,0.9,0.7c0,0.3-0.1,0.6-0.3,0.8
			c-0.2,0.2-0.4,0.3-0.7,0.3H196l-0.6,3.5h4.9c0.6,0,0.9,0.2,0.9,0.7c0,0.3-0.1,0.6-0.3,0.8c-0.2,0.2-0.4,0.3-0.7,0.3H194.3z"/>
		<path class="st2" d="M209.8,103.4c-0.7,0-1.4-0.1-2.1-0.2c-0.7-0.2-1.3-0.4-1.9-0.8c-0.3-0.2-0.4-0.4-0.5-0.6
			c-0.1-0.2,0-0.5,0.1-0.7c0.1-0.2,0.3-0.4,0.5-0.5c0.2-0.1,0.5-0.1,0.8,0.1c0.5,0.3,1.1,0.5,1.6,0.6c0.6,0.1,1.1,0.2,1.7,0.2
			c0.8,0,1.4-0.2,1.8-0.5c0.5-0.3,0.7-0.7,0.7-1.2c0-0.4-0.1-0.7-0.4-0.9s-0.7-0.5-1.4-0.6l-1.8-0.4c-0.8-0.2-1.5-0.5-1.9-1
			c-0.5-0.5-0.7-1.2-0.7-2c0-0.8,0.2-1.5,0.6-2c0.4-0.6,1-1,1.7-1.3c0.7-0.3,1.5-0.5,2.3-0.5c0.6,0,1.2,0.1,1.9,0.2
			c0.7,0.2,1.3,0.4,1.8,0.8c0.2,0.2,0.4,0.4,0.4,0.6s0,0.5-0.1,0.7c-0.1,0.2-0.3,0.3-0.5,0.4c-0.2,0.1-0.5,0-0.8-0.2
			c-0.4-0.2-0.8-0.4-1.3-0.5c-0.5-0.1-1-0.2-1.4-0.2c-0.7,0-1.4,0.2-1.8,0.5c-0.5,0.3-0.7,0.7-0.7,1.3c0,0.4,0.1,0.8,0.4,1
			c0.2,0.2,0.6,0.4,1.1,0.5l1.8,0.4c1,0.2,1.7,0.6,2.2,1.1s0.7,1.2,0.7,1.9c0,0.8-0.2,1.5-0.7,2.1c-0.4,0.6-1,1-1.8,1.3
			C211.4,103.3,210.6,103.4,209.8,103.4z"/>
		<path class="st2" d="M226.7,103.3c-0.8,0-1.2-0.4-1.1-1.2l1.5-9.7c0.1-0.7,0.5-1.1,1.2-1.1h5.9c0.6,0,0.9,0.2,0.9,0.7
			c0,0.3-0.1,0.6-0.3,0.8c-0.2,0.2-0.4,0.3-0.7,0.3h-5.1l-0.5,3.3h4.5c0.6,0,0.9,0.2,0.9,0.7c0,0.3-0.1,0.6-0.3,0.8
			c-0.2,0.2-0.4,0.3-0.7,0.3h-4.7l-0.6,3.5h4.9c0.6,0,0.9,0.2,0.9,0.7c0,0.3-0.1,0.6-0.3,0.8c-0.2,0.2-0.4,0.3-0.7,0.3H226.7z"/>
		<path class="st2" d="M239,103.3c-0.3,0-0.6-0.1-0.7-0.3c-0.1-0.2-0.2-0.5-0.1-0.8l1.6-10.2c0.1-0.6,0.5-0.9,1.1-0.9
			c0.3,0,0.5,0.1,0.6,0.2c0.2,0.1,0.3,0.3,0.4,0.6l2.7,7.2l5.1-7.4c0.3-0.4,0.7-0.6,1.2-0.6c0.3,0,0.6,0.1,0.7,0.3
			c0.2,0.2,0.2,0.5,0.1,0.8l-1.6,10.2c-0.1,0.6-0.5,0.9-1.1,0.9c-0.3,0-0.5-0.1-0.7-0.3c-0.2-0.2-0.2-0.5-0.2-0.8l1.1-7.1l-4.1,5.9
			c-0.1,0.2-0.2,0.3-0.4,0.4s-0.3,0.1-0.5,0.1c-0.4,0-0.7-0.2-0.8-0.6l-2.2-5.8l-1.1,7.2C240,103,239.6,103.3,239,103.3z"/>
		<path class="st2" d="M266,103.4c-0.3,0-0.6-0.1-0.8-0.3c-0.2-0.2-0.2-0.5-0.2-0.9l1.4-9h-3.1c-0.3,0-0.5-0.1-0.7-0.2
			s-0.3-0.3-0.3-0.5c0-0.3,0.1-0.6,0.3-0.8c0.2-0.2,0.5-0.3,0.8-0.3h8.5c0.6,0,1,0.2,1,0.7c0,0.3-0.1,0.6-0.3,0.8
			c-0.2,0.2-0.5,0.3-0.8,0.3h-3.3l-1.4,9.2C267.1,103,266.7,103.4,266,103.4z"/>
		<path class="st2" d="M276.2,103.3c-0.8,0-1.2-0.4-1.1-1.2l1.5-9.7c0.1-0.7,0.5-1.1,1.2-1.1h5.9c0.6,0,0.9,0.2,0.9,0.7
			c0,0.3-0.1,0.6-0.3,0.8c-0.2,0.2-0.4,0.3-0.7,0.3h-5.1l-0.5,3.3h4.5c0.6,0,0.9,0.2,0.9,0.7c0,0.3-0.1,0.6-0.3,0.8
			c-0.2,0.2-0.4,0.3-0.7,0.3h-4.7l-0.6,3.5h4.9c0.6,0,0.9,0.2,0.9,0.7c0,0.3-0.1,0.6-0.3,0.8s-0.4,0.3-0.7,0.3H276.2z"/>
		<path class="st2" d="M293.3,103.4c-1,0-2-0.2-2.8-0.6c-0.8-0.4-1.4-1-1.9-1.8c-0.5-0.8-0.7-1.8-0.7-3c0-1,0.1-1.9,0.4-2.7
			s0.7-1.6,1.2-2.2c0.5-0.6,1.2-1.1,2-1.5s1.7-0.5,2.7-0.5c0.6,0,1.3,0.1,1.9,0.3s1.1,0.4,1.6,0.7c0.2,0.2,0.4,0.4,0.4,0.7
			c0,0.3,0,0.5-0.2,0.7c-0.1,0.2-0.3,0.4-0.5,0.5c-0.2,0.1-0.4,0-0.7-0.1c-0.4-0.3-0.9-0.5-1.3-0.6c-0.4-0.1-0.8-0.2-1.3-0.2
			c-0.9,0-1.6,0.2-2.2,0.6c-0.6,0.4-1.1,1-1.4,1.7c-0.3,0.7-0.5,1.6-0.5,2.5c0,1.3,0.3,2.2,0.8,2.7c0.6,0.6,1.4,0.8,2.5,0.8
			c0.4,0,0.8-0.1,1.2-0.2s0.8-0.3,1.2-0.5c0.3-0.2,0.5-0.2,0.7-0.1c0.2,0.1,0.4,0.2,0.5,0.4c0.1,0.2,0.1,0.4,0.1,0.7
			c0,0.2-0.2,0.5-0.5,0.6c-0.5,0.3-1,0.6-1.7,0.7C294.5,103.4,293.9,103.4,293.3,103.4z"/>
		<path class="st2" d="M302.3,103.4c-0.3,0-0.5-0.1-0.7-0.3c-0.2-0.2-0.2-0.5-0.2-0.9L303,92c0.1-0.3,0.2-0.6,0.3-0.7
			s0.4-0.2,0.6-0.2c0.3,0,0.5,0.1,0.6,0.2c0.1,0.1,0.3,0.3,0.4,0.5l4.7,8.1l1.2-7.8c0.1-0.7,0.5-1,1.2-1c0.3,0,0.5,0.1,0.7,0.3
			c0.1,0.2,0.2,0.5,0.1,0.9l-1.6,10.1c-0.1,0.6-0.4,1-0.9,1c-0.3,0-0.5-0.1-0.7-0.2s-0.3-0.3-0.5-0.5l-4.7-8l-1.2,7.8
			c0,0.3-0.2,0.6-0.3,0.8C302.9,103.3,302.7,103.4,302.3,103.4z"/>
		<path class="st2" d="M322,103.4c-1,0-2-0.2-2.7-0.6c-0.8-0.4-1.4-1-1.8-1.8c-0.4-0.8-0.6-1.7-0.6-2.9c0-1.4,0.2-2.6,0.7-3.7
			s1.2-1.9,2.1-2.5c0.9-0.6,2-0.9,3.3-0.9c1.1,0,2,0.2,2.7,0.6c0.8,0.4,1.4,1,1.8,1.8c0.4,0.8,0.6,1.7,0.6,2.8
			c0,1.4-0.2,2.6-0.7,3.7c-0.5,1.1-1.2,1.9-2.1,2.5C324.4,103.1,323.3,103.4,322,103.4z M322,101.6c0.8,0,1.5-0.2,2.1-0.7
			c0.6-0.4,1-1.1,1.3-1.8s0.5-1.7,0.5-2.7c0-1.1-0.3-2-0.8-2.6c-0.5-0.6-1.3-0.8-2.2-0.8c-0.8,0-1.5,0.2-2.1,0.7
			c-0.6,0.4-1,1.1-1.3,1.8c-0.3,0.8-0.5,1.7-0.5,2.7c0,1.2,0.3,2,0.8,2.6C320.4,101.3,321.1,101.6,322,101.6z"/>
		<path class="st2" d="M333.1,103.3c-0.4,0-0.7-0.1-0.8-0.3c-0.2-0.2-0.2-0.5-0.2-0.9l1.6-9.9c0.1-0.7,0.5-1,1.2-1
			c0.4,0,0.6,0.1,0.8,0.3c0.2,0.2,0.2,0.5,0.2,0.9l-1.4,9.1h4.7c0.6,0,1,0.3,1,0.8c0,0.4-0.1,0.6-0.3,0.8c-0.2,0.2-0.5,0.3-0.8,0.3
			H333.1z"/>
		<path class="st2" d="M348.9,103.4c-1,0-2-0.2-2.7-0.6c-0.8-0.4-1.4-1-1.8-1.8c-0.4-0.8-0.6-1.7-0.6-2.9c0-1.4,0.2-2.6,0.7-3.7
			s1.2-1.9,2.1-2.5c0.9-0.6,2-0.9,3.3-0.9c1.1,0,2,0.2,2.7,0.6c0.8,0.4,1.4,1,1.8,1.8c0.4,0.8,0.6,1.7,0.6,2.8
			c0,1.4-0.2,2.6-0.7,3.7c-0.5,1.1-1.2,1.9-2.1,2.5C351.3,103.1,350.2,103.4,348.9,103.4z M348.9,101.6c0.8,0,1.5-0.2,2.1-0.7
			c0.6-0.4,1-1.1,1.3-1.8s0.5-1.7,0.5-2.7c0-1.1-0.3-2-0.8-2.6c-0.5-0.6-1.3-0.8-2.2-0.8c-0.8,0-1.5,0.2-2.1,0.7
			c-0.6,0.4-1,1.1-1.3,1.8c-0.3,0.8-0.5,1.7-0.5,2.7c0,1.2,0.3,2,0.8,2.6C347.3,101.3,348,101.6,348.9,101.6z"/>
		<path class="st2" d="M364.8,103.4c-1.1,0-2.1-0.2-2.9-0.6c-0.8-0.4-1.5-1-1.9-1.8c-0.5-0.8-0.7-1.8-0.7-2.9c0-1.4,0.3-2.6,0.8-3.6
			c0.5-1.1,1.3-1.9,2.2-2.5c1-0.6,2.1-0.9,3.5-0.9c1.4,0,2.5,0.3,3.4,0.9c0.3,0.2,0.4,0.4,0.5,0.7c0,0.3,0,0.5-0.1,0.7
			c-0.1,0.2-0.3,0.4-0.5,0.5c-0.2,0.1-0.5,0-0.7-0.1c-0.7-0.5-1.6-0.7-2.6-0.7c-0.9,0-1.6,0.2-2.2,0.7c-0.6,0.4-1.1,1-1.4,1.8
			c-0.3,0.8-0.5,1.6-0.5,2.6c0,1.2,0.3,2.1,0.9,2.7c0.6,0.6,1.5,0.9,2.6,0.9c0.4,0,0.7,0,1.1-0.1c0.3-0.1,0.7-0.1,1-0.2l0.5-2.8
			h-1.8c-0.3,0-0.5-0.1-0.7-0.2c-0.2-0.1-0.2-0.3-0.2-0.5c0-0.3,0.1-0.5,0.3-0.7c0.2-0.2,0.4-0.2,0.7-0.2h2.7c0.3,0,0.6,0.1,0.7,0.3
			c0.2,0.2,0.2,0.4,0.2,0.8l-0.6,4.1c-0.1,0.5-0.3,0.9-0.8,1c-0.5,0.2-1,0.3-1.6,0.4C365.9,103.4,365.4,103.4,364.8,103.4z"/>
		<path class="st2" d="M374.7,103.4c-0.4,0-0.6-0.1-0.8-0.3c-0.2-0.2-0.2-0.5-0.1-1l1.5-9.9c0.1-0.7,0.5-1.1,1.2-1.1
			c0.7,0,1,0.4,0.9,1.3l-1.5,9.9C375.8,103,375.4,103.4,374.7,103.4z"/>
		<path class="st2" d="M381.1,103.4c-0.4,0-0.7-0.1-0.8-0.4c-0.2-0.3-0.2-0.6,0.1-0.9l6.1-10.2c0.2-0.3,0.3-0.5,0.5-0.6
			c0.2-0.1,0.4-0.2,0.7-0.2c0.6,0,1,0.3,1.1,0.9l2.9,10c0.1,0.5,0.1,0.8-0.1,1c-0.2,0.2-0.4,0.3-0.8,0.3c-0.3,0-0.5-0.1-0.7-0.2
			c-0.2-0.2-0.3-0.4-0.4-0.7l-0.5-1.9h-5.8l-1.3,2.3C381.9,103.2,381.5,103.4,381.1,103.4z M387.4,93.6l-3,5.1h4.3L387.4,93.6
			L387.4,93.6z"/>
		<path class="st2" d="M409.9,102.3l-5.9-2.7c-0.6-0.3-0.9-0.6-0.9-1.1c0-0.3,0.1-0.6,0.3-0.8c0.2-0.2,0.4-0.4,0.7-0.5l6.9-2.8
			c0.3-0.1,0.5-0.1,0.6,0c0.2,0.1,0.3,0.2,0.4,0.4c0.1,0.2,0.1,0.4,0,0.6c-0.1,0.2-0.2,0.3-0.5,0.4l-6.4,2.6l5.5,2.5
			c0.2,0.1,0.4,0.3,0.4,0.4c0.1,0.2,0.1,0.4,0,0.6c-0.1,0.2-0.2,0.3-0.4,0.4C410.4,102.5,410.2,102.5,409.9,102.3z"/>
		<path class="st2" d="M415.4,103.8c-0.1,0.2-0.3,0.4-0.5,0.5c-0.2,0.1-0.4,0-0.6-0.1c-0.2-0.1-0.3-0.2-0.4-0.4s-0.1-0.4,0.1-0.7
			l5.7-12.2c0.1-0.2,0.3-0.4,0.5-0.5c0.2-0.1,0.4,0,0.6,0.1c0.2,0.1,0.3,0.2,0.4,0.4c0.1,0.2,0.1,0.4-0.1,0.7L415.4,103.8z"/>
		<path class="st2" d="M423.9,102.3c-0.2,0.1-0.5,0.1-0.6,0c-0.2-0.1-0.3-0.2-0.4-0.4c-0.1-0.2-0.1-0.4,0-0.6
			c0.1-0.2,0.2-0.3,0.5-0.4l6.4-2.6l-5.5-2.5c-0.2-0.1-0.4-0.3-0.4-0.5c-0.1-0.2-0.1-0.4,0-0.6c0.1-0.2,0.2-0.3,0.4-0.4
			c0.2-0.1,0.4-0.1,0.6,0l6,2.8c0.6,0.3,0.9,0.6,0.9,1.1c0,0.3-0.1,0.6-0.3,0.8c-0.2,0.2-0.4,0.4-0.7,0.5L423.9,102.3z"/>
	</g>
</g>
</svg>
