<svg id="visual" viewBox="0 0 960 540" width="960" height="540" xmlns="http://www.w3.org/2000/svg" xmlns:xlink="http://www.w3.org/1999/xlink" version="1.1"><rect x="0" y="0" width="960" height="540" fill="#282a36"></rect><path d="M0 454L20 457.2C40 460.3 80 466.7 120 469C160 471.3 200 469.7 240 460.8C280 452 320 436 360 435.5C400 435 440 450 480 456.7C520 463.3 560 461.7 600 449.8C640 438 680 416 720 408.3C760 400.7 800 407.3 840 409.5C880 411.7 920 409.3 940 408.2L960 407L960 541L940 541C920 541 880 541 840 541C800 541 760 541 720 541C680 541 640 541 600 541C560 541 520 541 480 541C440 541 400 541 360 541C320 541 280 541 240 541C200 541 160 541 120 541C80 541 40 541 20 541L0 541Z" fill="#f5f5f5" stroke-linecap="round" stroke-linejoin="miter"></path></svg>